<?xml version="1.0" standalone="no"?>
<!DOCTYPE svg PUBLIC "-//W3C//DTD SVG 20010904//EN"
 "http://www.w3.org/TR/2001/REC-SVG-20010904/DTD/svg10.dtd">
<svg version="1.0"
    xmlns="http://www.w3.org/2000/svg" width="271.000000pt" height="121.000000pt" viewBox="0 0 271.000000 121.000000" preserveAspectRatio="xMidYMid meet">

    <g transform="translate(0.000000,121.000000) scale(0.100000,-0.100000)" fill="#6377ee" stroke="none">
        <path d="M630 1001 c-101 -33 -185 -105 -237 -203 -26 -48 -28 -62 -28 -158 1
-86 5 -113 23 -153 48 -105 165 -194 285 -216 83 -15 87 -12 87 75 l0 74 -42
0 c-85 1 -171 64 -198 145 -49 148 73 308 224 292 78 -8 127 -38 179 -111 13
-18 17 -17 75 24 l61 43 -17 30 c-27 47 -112 115 -172 139 -59 23 -195 34
-240 19z"/>
        <path d="M1107 768 l-277 -202 0 -153 0 -153 65 0 65 0 0 123 1 122 67 47 c37
26 132 95 211 152 162 117 147 114 230 47 l33 -28 -111 -82 -111 -82 0 -149 0
-150 70 0 70 0 0 123 1 122 207 150 207 150 109 5 110 5 -75 55 c-41 31 -88
66 -105 78 l-32 22 -94 -69 c-115 -83 -136 -95 -151 -84 -76 57 -167 123 -188
136 -25 17 -25 17 -302 -185z"/>
        <path d="M1868 743 c-14 -3 -18 -15 -18 -49 l0 -44 80 0 80 0 0 -195 0 -195
45 0 45 0 0 195 0 195 80 0 80 0 0 49 0 49 -187 0 c-104 0 -196 -2 -205 -5z"/>
        <path d="M1690 354 c0 -33 33 -30 38 4 3 17 -2 22 -17 22 -16 0 -21 -6 -21
-26z"/>
        <path d="M1760 355 c0 -27 18 -33 38 -13 20 20 14 38 -13 38 -20 0 -25 -5 -25
-25z"/>
        <path d="M1697 303 c-15 -15 -7 -43 13 -43 15 0 20 7 20 25 0 24 -18 34 -33
18z"/>
        <path d="M1773 303 c-21 -8 -15 -43 7 -43 11 0 20 7 20 15 0 8 0 18 1 22 1 10
-13 13 -28 6z"/>
        <path d="M1642 197 c9 -7 18 -31 21 -53 l4 -39 1 43 c2 30 6 42 17 42 8 0 15
5 15 10 0 6 -17 10 -37 10 -33 -1 -36 -2 -21 -13z"/>
        <path d="M1720 165 c0 -25 5 -45 10 -45 6 0 10 5 10 10 0 16 32 11 47 -7 10
-14 13 -15 11 -3 -1 8 2 26 6 39 10 30 -13 51 -56 51 -27 0 -28 -2 -28 -45z
m70 10 c0 -9 -9 -15 -25 -15 -16 0 -25 6 -25 15 0 9 9 15 25 15 16 0 25 -6 25
-15z"/>
        <path d="M1844 175 c-19 -47 -18 -53 11 -47 14 2 33 -2 42 -9 15 -13 16 -11
10 13 -22 85 -40 98 -63 43z m36 -21 c0 -14 -12 -19 -23 -8 -9 9 4 35 14 28 5
-3 9 -12 9 -20z"/>
        <path d="M1930 165 c0 -50 13 -62 55 -51 21 5 25 12 25 45 0 41 -11 51 -56 51
-22 0 -24 -4 -24 -45z m60 -5 c0 -23 -4 -30 -20 -30 -16 0 -20 7 -20 30 0 23
4 30 20 30 16 0 20 -7 20 -30z"/>
        <path d="M2046 163 c1 -35 6 -49 18 -51 19 -4 20 2 4 27 -9 15 -9 25 0 45 10
23 9 26 -6 26 -15 0 -17 -8 -16 -47z"/>
        <path d="M2100 159 c0 -32 4 -48 10 -44 6 4 10 14 9 23 -3 35 2 35 31 2 l29
-35 1 53 c0 29 -4 51 -9 48 -5 -3 -7 -15 -4 -25 8 -32 -15 -33 -32 -1 -23 44
-35 37 -35 -21z"/>
        <path d="M2217 203 c-14 -14 -7 -81 9 -87 24 -9 52 -7 59 4 4 6 -6 9 -27 8
-30 -3 -33 0 -36 28 -3 27 1 32 30 41 l33 11 -31 1 c-17 1 -34 -2 -37 -6z"/>
        <path d="M2265 150 c3 -5 8 -10 11 -10 2 0 4 5 4 10 0 6 -5 10 -11 10 -5 0 -7
-4 -4 -10z"/>
    </g>
</svg>
