<?xml version="1.0" standalone="no"?>
<!DOCTYPE svg PUBLIC "-//W3C//DTD SVG 20010904//EN"
 "http://www.w3.org/TR/2001/REC-SVG-20010904/DTD/svg10.dtd">
<svg version="1.0"
    xmlns="http://www.w3.org/2000/svg" width="586.000000pt" height="426.000000pt" viewBox="0 0 586.000000 426.000000" preserveAspectRatio="xMidYMid meet">

    <g transform="translate(0.000000,426.000000) scale(0.100000,-0.100000)" fill="#6377ee" stroke="none">
        <path d="M1144 3390 c-199 -22 -381 -113 -529 -264 -432 -444 -295 -1173 269
-1431 118 -54 299 -90 398 -78 l48 6 0 182 0 181 -57 -4 c-74 -5 -191 20 -263
55 -31 16 -86 58 -126 98 -208 206 -214 521 -12 731 70 73 189 138 283 155
115 21 245 -3 360 -68 60 -33 150 -125 187 -190 17 -29 32 -53 35 -53 3 0 44
28 92 63 47 35 111 81 141 102 30 21 57 39 59 41 8 7 -44 92 -99 159 -180 220
-495 347 -786 315z"/>
        <path d="M2599 3152 c-241 -178 -416 -306 -802 -587 l-316 -230 -1 -367 0
-368 161 0 161 0 -3 287 -3 286 184 135 c191 139 398 292 485 359 28 22 57 42
65 45 8 4 69 47 135 97 66 50 128 91 138 91 10 0 49 -24 87 -52 38 -29 91 -69
119 -88 28 -19 52 -40 55 -46 4 -10 -135 -116 -446 -343 l-58 -42 0 -364 0
-365 160 0 160 0 0 288 1 287 142 105 c78 58 275 201 437 319 162 118 324 236
359 262 l64 49 266 0 266 0 -130 96 c-230 170 -392 284 -404 284 -7 0 -62 -37
-124 -83 -366 -271 -408 -300 -430 -289 -12 5 -103 70 -202 144 -249 186 -310
228 -326 228 -8 -1 -97 -63 -200 -138z"/>
        <path d="M4048 2772 l-158 -3 0 -119 0 -120 190 0 190 0 0 -460 0 -460 115 0
115 0 0 460 0 460 190 0 190 0 0 120 0 120 -182 2 c-325 3 -490 3 -650 0z"/>
        <path d="M3520 1839 l0 -60 53 3 52 3 3 58 3 57 -56 0 -55 0 0 -61z"/>
        <path d="M3690 1839 l0 -60 53 3 52 3 3 58 3 57 -56 0 -55 0 0 -61z"/>
        <path d="M3514 1704 c3 -9 6 -33 6 -55 l0 -39 55 0 55 0 0 55 0 55 -61 0 c-52
0 -60 -2 -55 -16z"/>
        <path d="M3690 1665 l0 -55 55 0 55 0 0 55 0 55 -55 0 -55 0 0 -55z"/>
        <path d="M3367 1484 c-14 -15 8 -34 39 -34 l34 0 0 -95 c0 -87 2 -95 19 -95
25 0 34 40 29 123 l-3 62 38 3 c29 3 37 7 37 23 0 17 -8 19 -93 19 -52 0 -96
-3 -100 -6z"/>
        <path d="M3600 1375 c0 -107 1 -115 19 -115 15 0 21 8 23 33 3 28 7 32 36 35
29 3 34 -1 47 -32 12 -28 21 -36 41 -36 21 0 25 3 19 18 -16 37 -16 59 -1 71
11 9 16 30 16 61 0 68 -17 80 -118 80 l-82 0 0 -115z m145 35 c0 -35 0 -35
-47 -38 l-48 -3 0 41 0 41 48 -3 c47 -3 47 -3 47 -38z"/>
        <path d="M3875 1388 c-21 -57 -40 -109 -42 -115 -3 -8 4 -13 20 -13 17 0 28 7
32 20 5 17 15 20 57 20 41 0 51 -3 55 -20 4 -14 14 -20 35 -20 20 0 29 4 25
13 -2 6 -21 58 -42 115 -38 101 -39 102 -70 102 -32 0 -33 -1 -70 -102z m85 3
c17 -33 12 -51 -15 -51 -26 0 -32 19 -19 54 8 21 21 20 34 -3z"/>
        <path d="M4090 1391 c0 -55 3 -106 6 -115 5 -13 22 -16 84 -16 102 0 110 9
110 118 0 107 -6 112 -116 112 l-84 0 0 -99z m150 -16 l0 -75 -35 0 c-19 0
-38 -1 -42 -2 -9 -3 -24 132 -17 144 3 4 25 8 50 8 l44 0 0 -75z"/>
        <path d="M4340 1470 c0 -11 7 -20 15 -20 12 0 15 -14 15 -69 0 -49 -4 -72 -15
-81 -31 -26 -17 -40 40 -40 42 0 55 4 55 15 0 8 -9 19 -20 25 -17 9 -20 21
-20 75 0 54 3 66 20 75 11 6 20 17 20 25 0 11 -13 15 -55 15 -48 0 -55 -2 -55
-20z"/>
        <path d="M4490 1375 l0 -115 25 0 c24 0 25 2 25 70 0 39 3 70 8 70 4 0 25 -32
46 -70 35 -61 43 -70 68 -70 l28 0 0 115 0 115 -25 0 c-24 0 -25 -2 -25 -70 0
-38 -4 -70 -8 -70 -4 0 -25 32 -46 70 -33 62 -41 70 -67 70 l-29 0 0 -115z"/>
        <path d="M4752 1478 c-16 -16 -16 -190 0 -206 8 -8 45 -12 100 -12 l89 0 -3
63 -3 62 -42 3 c-32 2 -43 0 -43 -11 0 -8 9 -17 20 -20 13 -3 20 -14 20 -30 0
-27 -16 -37 -60 -37 -43 0 -53 20 -45 94 l7 65 62 3 c49 2 61 7 64 21 3 15 -6
17 -75 17 -48 0 -84 -5 -91 -12z"/>
    </g>
</svg>
